Coordinates
version=1
nRows=15
nColumns=46
inDegrees=yes

Units are S.I. units (second, meters, Newtons, ...)
Angles are in degrees.

endheader
time	pelvis_tilt	pelvis_list	pelvis_rotation	pelvis_tx	pelvis_ty	pelvis_tz	bb_angle	bb_tx	bb_ty	bb_tz	hip_flexion_r	hip_adduction_r	hip_rotation_r	knee_angle_r	knee_angle_r_beta	ankle_angle_r	subtalar_angle_r	mtp_angle_r	crank_angle_r	hip_flexion_l	hip_adduction_l	hip_rotation_l	knee_angle_l	knee_angle_l_beta	ankle_angle_l	subtalar_angle_l	mtp_angle_l	crank_angle_l	lumbar_extension	lumbar_bending	lumbar_rotation	arm_flex_r	arm_add_r	arm_rot_r	elbow_flex_r	pro_sup_r	wrist_flex_r	wrist_dev_r	arm_flex_l	arm_add_l	arm_rot_l	elbow_flex_l	pro_sup_l	wrist_flex_l	wrist_dev_l
      7.50000000	    -26.25280175	     -5.58706604	      0.41794708	      0.22305591	      1.03186748	     -0.22576947	      0.00000000	      0.50000000	      0.00000000	      0.25000000	     75.37552591	     -0.02115052	      2.77984867	    109.52988941	      1.91165720	     -0.55290996	     -8.52486845	      0.00000000	      0.00000000	     51.08647404	     -5.08984426	      7.90895249	     35.38185502	      0.61752987	     13.11289493	    -13.17031992	      0.00000000	      0.00000000	    -59.31288454	     -1.60374072	      4.18325790	     55.97411058	    -35.96510206	     17.08978845	    107.24239995	     52.93884516	      0.00000000	      0.00000000	     66.59439003	    -19.16531263	     25.63985216	    102.79468454	     51.39584376	      0.00000000	      0.00000000
      7.50500000	    -26.29283010	     -6.28675797	     -0.30275873	      0.22327428	      1.03170989	     -0.22598250	      0.00000000	      0.50000000	      0.00000000	      0.25000000	     76.97928529	      0.63222631	      2.33253657	    110.91366503	      1.93580864	     -0.47368269	     -8.31066163	      0.00000000	      0.00000000	     49.47327008	     -6.31833245	      7.57540608	     33.29996460	      0.58119402	     12.37788200	    -12.44574515	      0.00000000	      0.00000000	    -59.18496538	     -1.34894191	      5.13046013	     56.39523421	    -35.80923436	     17.33939844	    107.23297587	     52.96140475	      0.00000000	      0.00000000	     66.27066315	    -19.33747587	     25.50105251	    102.84731704	     51.40260711	      0.00000000	      0.00000000
      7.51000000	    -26.34479357	     -6.90974182	     -0.98739840	      0.22352165	      1.03152639	     -0.22642354	      0.00000000	      0.50000000	      0.00000000	      0.25000000	     78.61512995	      1.17753046	      1.93295624	    112.20493490	      1.95834555	     -0.45321896	     -8.07699330	      0.00000000	      0.00000000	     47.92816954	     -7.45670797	      7.03117262	     31.37595504	      0.54761372	     11.61248792	    -11.61815009	      0.00000000	      0.00000000	    -59.09194758	     -1.10397853	      6.05940168	     56.79656696	    -35.62164313	     17.58360749	    107.24298594	     52.98209906	      0.00000000	      0.00000000	     65.96012984	    -19.47177392	     25.32664883	    102.88599878	     51.39867498	      0.00000000	      0.00000000
      7.51500000	    -26.20963306	     -7.39635446	     -1.83339030	      0.22400396	      1.03166583	     -0.22649965	      0.00000000	      0.50000000	      0.00000000	      0.25000000	     80.04451333	      1.80418768	      1.64882192	    113.41814823	      1.97952012	     -0.17383217	     -8.07627194	      0.00000000	      0.00000000	     46.24029523	     -8.71611402	      5.84519328	     29.72647542	      0.51882487	     11.09354215	    -10.29673854	      0.00000000	      0.00000000	    -59.20373459	     -0.88189140	      6.01985535	     58.92243574	    -34.72981714	     20.31643764	    106.17526824	     53.18913485	      0.00000000	      0.00000000	     64.45423265	    -20.38151630	     23.40029743	    104.20187998	     51.59994752	      0.00000000	      0.00000000
      7.52000000	    -26.18106805	     -7.94101760	     -2.49786577	      0.22430198	      1.03145345	     -0.22681251	      0.00000000	      0.50000000	      0.00000000	      0.25000000	     81.58320970	      2.33921300	      1.28650139	    114.51543107	      1.99867132	     -0.23735387	     -7.61612121	      0.00000000	      0.00000000	     44.80280173	     -9.83892563	      4.81013225	     28.27516383	      0.49349471	     10.47182902	     -9.18686958	      0.00000000	      0.00000000	    -59.20552762	     -0.68985282	      6.76884413	     59.26993603	    -34.42323575	     20.49102985	    106.24646757	     53.22230675	      0.00000000	      0.00000000	     64.07427627	    -20.61589644	     23.22181090	    104.26049331	     51.61395630	      0.00000000	      0.00000000
      7.52500000	    -26.22256507	     -8.41033603	     -3.00818557	      0.22433626	      1.03094477	     -0.22752215	      0.00000000	      0.50000000	      0.00000000	      0.25000000	     83.24749919	      2.59286597	      0.97336113	    115.55943228	      2.01689257	     -0.08372349	     -7.40328515	      0.00000000	      0.00000000	     43.56904494	    -10.74586844	      3.90801531	     27.04908994	      0.47209568	      9.81862186	     -8.01592478	      0.00000000	      0.00000000	    -59.12649141	     -0.38517477	      7.33810389	     59.66621050	    -34.21294055	     20.68525746	    106.34176861	     53.25377870	      0.00000000	      0.00000000	     63.77415334	    -20.79642272	     22.95425071	    104.33795037	     51.61203596	      0.00000000	      0.00000000
      7.53000000	    -26.27102415	     -8.79696117	     -3.52473666	      0.22435388	      1.03038580	     -0.22805858	      0.00000000	      0.50000000	      0.00000000	      0.25000000	     84.87181512	      2.94112152	      0.76574650	    116.46547686	      2.03270604	     -0.12216141	     -6.98849929	      0.00000000	      0.00000000	     42.56938682	    -11.66341260	      2.55355129	     26.32471221	      0.45945290	      9.67412793	     -6.21841306	      0.00000000	      0.00000000	    -59.14306201	      0.05882320	      7.07101022	     61.23827680	    -33.02191187	     22.72507880	    105.42955046	     53.39624148	      0.00000000	      0.00000000	     62.39513445	    -21.91173247	     21.10257390	    105.80083058	     51.83804815	      0.00000000	      0.00000000
      7.53500000	    -26.44781194	     -9.15308095	     -3.85095750	      0.22403604	      1.02966833	     -0.22905063	      0.00000000	      0.50000000	      0.00000000	      0.25000000	     86.61028675	      3.06440810	      0.56416259	    117.23272426	      2.04609703	     -0.07709804	     -6.73822500	      0.00000000	      0.00000000	     41.73576811	    -12.28603535	      1.72832561	     25.58165109	      0.44648404	      9.04754404	     -5.40041492	      0.00000000	      0.00000000	    -58.99950124	      0.49106439	      7.56086819	     61.59476189	    -32.78974105	     22.81116436	    105.56315880	     53.42535685	      0.00000000	      0.00000000	     62.21735355	    -22.10143257	     20.99777175	    105.76120128	     51.83225309	      0.00000000	      0.00000000
      7.54000000	    -26.50462055	     -9.42566627	     -4.05099240	      0.22358884	      1.02900304	     -0.23002189	      0.00000000	      0.50000000	      0.00000000	      0.25000000	     88.19133559	      3.12265001	      0.47411878	    117.91927579	      2.05807961	      0.05342565	     -6.49025114	      0.00000000	      0.00000000	     40.98691139	    -12.80935592	      0.79897206	     25.22641023	      0.44028392	      8.61798788	     -4.32878739	      0.00000000	      0.00000000	    -58.97914039	      0.93168372	      7.84905321	     62.01756053	    -32.52426743	     22.97996659	    105.75300051	     53.47132827	      0.00000000	      0.00000000	     61.99492911	    -22.31086493	     20.78255071	    105.74628482	     51.82026285	      0.00000000	      0.00000000
      7.54500000	    -26.64170651	     -9.71565995	     -4.48867988	      0.22336750	      1.02814889	     -0.23048257	      0.00000000	      0.50000000	      0.00000000	      0.25000000	     89.78574883	      3.44761946	      0.36055079	    118.47702015	      2.06781409	      0.39946438	     -6.06952728	      0.00000000	      0.00000000	     40.53898266	    -13.65214456	     -0.68185428	     25.56603829	      0.44621154	      9.27525161	     -2.01591428	      0.00000000	      0.00000000	    -58.90946339	      1.29796274	      7.75449584	     62.78873964	    -31.74495793	     24.18697167	    105.71866101	     53.60443918	      0.00000000	      0.00000000	     61.05364695	    -23.05689486	     19.59113145	    106.43858954	     51.86965681	      0.00000000	      0.00000000
      7.55000000	    -26.97321108	     -9.85894799	     -4.71061671	      0.22249729	      1.02732618	     -0.23157459	      0.00000000	      0.50000000	      0.00000000	      0.25000000	     91.57455285	      3.28470257	      0.21401300	    118.80603197	      2.07355643	      0.37536095	     -5.92328058	      0.00000000	      0.00000000	     40.29864038	    -14.00423982	     -1.33459786	     25.67959761	      0.44819353	      8.97011742	     -1.34748615	      0.00000000	      0.00000000	    -58.72012671	      1.69589675	      7.84466785	     63.39571072	    -31.38227248	     24.49566399	    105.81166642	     53.64827213	      0.00000000	      0.00000000	     60.83566515	    -23.31189156	     19.20947986	    106.67556968	     51.88734336	      0.00000000	      0.00000000
      7.55500000	    -26.96493116	    -10.17992312	     -4.72922822	      0.22231485	      1.02669647	     -0.23264306	      0.00000000	      0.50000000	      0.00000000	      0.25000000	     92.77545728	      3.52502009	      0.26591415	    119.09767399	      2.07864654	      0.82402841	     -5.70420872	      0.00000000	      0.00000000	     39.96570978	    -14.50173243	     -2.05777922	     26.34321783	      0.45977589	      9.35671636	     -0.10296251	      0.00000000	      0.00000000	    -58.86738267	      2.61649909	      6.46074848	     65.51002094	    -28.95736337	     27.11307538	    103.98772233	     53.67517818	      0.00000000	      0.00000000	     58.68807878	    -25.64219561	     16.52185807	    109.19592886	     52.24014600	      0.00000000	      0.00000000
      7.56000000	    -27.03367212	    -10.22119061	     -4.77348083	      0.22168417	      1.02621104	     -0.23388027	      0.00000000	      0.50000000	      0.00000000	      0.25000000	     94.00308781	      3.45493196	      0.40153792	    119.20795889	      2.08057138	      1.15308053	     -5.66115483	      0.00000000	      0.00000000	     39.71233746	    -14.62472321	     -2.52581429	     26.98284825	      0.47093954	      9.27094511	      0.10688721	      0.00000000	      0.00000000	    -58.95407788	      2.96397330	      6.50975881	     65.87834722	    -28.77768390	     27.15424085	    104.20939627	     53.71264611	      0.00000000	      0.00000000	     58.72747901	    -25.74207573	     16.39682692	    109.20805353	     52.23805225	      0.00000000	      0.00000000
      7.56500000	    -27.18673632	    -10.44288739	     -4.95156886	      0.22097409	      1.02559043	     -0.23478905	      0.00000000	      0.50000000	      0.00000000	      0.25000000	     95.18734375	      3.58088419	      0.29735670	    119.07794716	      2.07830224	      1.58254868	     -5.50763823	      0.00000000	      0.00000000	     39.75704186	    -15.05312176	     -2.95373785	     28.08485293	      0.49017315	      9.71576344	      0.70087229	      0.00000000	      0.00000000	    -58.98544713	      3.40668019	      6.56360037	     66.40338037	    -28.42619060	     27.71844345	    104.48033145	     53.82190850	      0.00000000	      0.00000000	     58.28305350	    -26.24362972	     15.74045925	    109.66722628	     52.28648270	      0.00000000	      0.00000000
      7.57000000	    -27.17263188	    -10.36141856	     -5.03001129	      0.22028693	      1.02536038	     -0.23580909	      0.00000000	      0.50000000	      0.00000000	      0.25000000	     96.11847172	      3.59592051	      0.45864757	    118.86569493	      2.07459774	      2.07863665	     -5.66761864	      0.00000000	      0.00000000	     39.60503648	    -15.04328483	     -3.27534976	     29.13098520	      0.50843161	      9.70725175	      0.35072307	      0.00000000	      0.00000000	    -59.17167526	      3.56849636	      6.47929183	     66.82603504	    -28.26008596	     27.76834733	    104.65138088	     53.85018337	      0.00000000	      0.00000000	     58.31634589	    -26.31705372	     15.55042585	    109.77453798	     52.29114223	      0.00000000	      0.00000000
